<svg width="42" height="42" viewBox="0 0 42 42" fill="none" xmlns="http://www.w3.org/2000/svg">
<rect width="42" height="42" rx="6" fill="#A3252E"/>
<path d="M21.625 16.6673C21.625 16.185 21.8642 15.7345 22.2623 15.4669C23.0813 14.9166 23.9881 14.5122 24.9431 14.2716L27.9514 13.5135C28.2301 13.4433 28.5 13.6557 28.5 13.9452V23.8738C28.5 24.1731 28.5 24.3227 28.4464 24.4446C28.3991 24.5521 28.3229 24.6442 28.2264 24.7103C28.117 24.7853 27.9709 24.812 27.6789 24.8656L22.8039 25.759C22.399 25.8332 22.1965 25.8703 22.0384 25.813C21.8997 25.7627 21.7831 25.6646 21.7092 25.5361C21.625 25.3895 21.625 25.1821 21.625 24.7673V16.6673Z" fill="white"/>
<path d="M13.5 13.9452C13.5 13.6557 13.7699 13.4433 14.0486 13.5135L17.0569 14.2716C18.0119 14.5122 18.9186 14.9166 19.7376 15.4669C20.1358 15.7345 20.375 16.185 20.375 16.6673V24.7673C20.375 25.1821 20.375 25.3895 20.2908 25.5361C20.2169 25.6646 20.1003 25.7627 19.9616 25.813C19.8035 25.8703 19.601 25.8332 19.1961 25.759L14.3211 24.8656C14.029 24.812 13.883 24.7853 13.7736 24.7103C13.6771 24.6442 13.6009 24.5521 13.5536 24.4446C13.5 24.3227 13.5 24.1731 13.5 23.8738V13.9452Z" fill="white"/>
<path d="M13.5101 26.4923C13.5718 26.15 13.8972 25.923 14.2368 25.9852L20.6646 27.1632C20.8864 27.2039 21.1136 27.2039 21.3354 27.1632L27.7632 25.9852C28.1028 25.923 28.4282 26.15 28.4899 26.4923C28.5517 26.8347 28.3264 27.1626 27.9868 27.2249L22.819 28.172C22.615 28.7195 21.878 29.125 21 29.125C20.122 29.125 19.385 28.7195 19.181 28.172L14.0132 27.2249C13.6736 27.1626 13.4483 26.8347 13.5101 26.4923Z" fill="white"/>
</svg>
